<svg id="svg" version="1.1" xmlns="http://www.w3.org/2000/svg" xmlns:xlink="http://www.w3.org/1999/xlink" width="400" height="400" viewBox="0, 0, 400,400"><g id="svgg"><path id="path0" d="M188.171 168.033 C 186.835 168.161,185.564 168.375,185.348 168.509 C 185.131 168.643,183.794 168.855,182.377 168.981 C 180.960 169.108,179.260 169.463,178.600 169.770 C 177.408 170.326,173.983 171.419,173.600 171.366 C 173.490 171.351,172.572 171.827,171.560 172.423 C 168.314 174.338,165.533 174.939,159.445 175.044 C 153.158 175.152,152.256 175.489,153.129 177.404 C 154.177 179.704,152.921 181.884,150.793 181.459 C 148.874 181.075,148.217 182.578,148.994 185.579 C 150.021 189.539,148.092 200.800,146.387 200.800 C 146.268 200.800,146.127 201.368,146.074 202.063 C 146.021 202.758,145.693 203.926,145.345 204.660 C 144.997 205.394,144.810 206.400,144.929 206.897 C 145.049 207.394,144.997 208.520,144.814 209.400 C 144.631 210.280,144.271 211.990,144.015 213.200 C 143.758 214.410,143.426 216.030,143.276 216.800 C 142.492 220.830,143.075 229.309,144.308 231.800 C 144.961 233.120,145.624 234.911,145.781 235.781 C 145.938 236.650,146.502 238.179,147.033 239.178 C 147.565 240.176,148.000 241.364,148.000 241.817 C 148.000 242.270,148.180 242.820,148.401 243.041 C 148.621 243.261,149.410 244.928,150.154 246.745 C 150.898 248.562,151.892 250.459,152.363 250.960 C 153.452 252.120,154.023 254.058,153.533 254.934 C 153.271 255.402,153.315 255.614,153.680 255.646 C 153.966 255.672,154.380 255.734,154.600 255.785 C 154.820 255.836,155.315 255.906,155.700 255.939 C 156.465 256.006,156.671 257.385,155.981 257.812 C 155.356 258.198,156.395 259.288,157.121 259.009 C 157.595 258.827,157.618 258.896,157.237 259.355 C 156.945 259.707,156.910 260.021,157.146 260.167 C 157.358 260.298,157.596 260.212,157.675 259.976 C 157.757 259.730,158.232 259.908,158.791 260.392 C 159.326 260.856,160.357 261.603,161.082 262.051 C 161.807 262.499,162.400 263.101,162.400 263.389 C 162.400 263.676,163.202 264.289,164.183 264.750 C 166.116 265.659,166.673 266.419,166.607 268.060 C 166.568 269.029,166.676 269.106,167.867 268.958 C 168.904 268.829,169.268 268.980,169.650 269.698 C 170.263 270.849,171.128 271.484,172.444 271.748 C 173.573 271.975,176.106 273.905,175.839 274.336 C 175.750 274.481,176.131 274.627,176.687 274.661 C 177.243 274.694,178.206 275.097,178.827 275.557 C 179.448 276.016,180.209 276.295,180.517 276.176 C 180.826 276.058,182.351 276.600,183.907 277.381 C 185.462 278.161,186.985 278.800,187.291 278.800 C 188.066 278.800,189.400 279.834,189.400 280.434 C 189.400 280.709,189.670 281.007,190.000 281.097 C 190.533 281.243,190.533 281.214,190.000 280.837 C 189.525 280.500,189.665 280.411,190.676 280.406 C 191.378 280.403,192.045 280.550,192.158 280.733 C 192.272 280.916,193.677 281.297,195.282 281.580 C 196.887 281.863,198.909 282.433,199.775 282.847 C 200.641 283.261,202.036 283.600,202.875 283.600 C 204.242 283.600,204.563 283.845,204.475 284.817 C 204.464 284.936,204.846 285.063,205.323 285.099 C 206.010 285.151,206.066 285.086,205.595 284.788 C 205.152 284.508,205.358 284.398,206.400 284.356 C 209.637 284.227,211.945 284.080,214.282 283.855 C 215.646 283.724,216.862 283.776,216.982 283.971 C 217.105 284.170,217.768 284.179,218.500 283.991 C 219.215 283.808,220.782 283.460,221.982 283.217 C 223.181 282.975,224.498 282.474,224.907 282.103 C 225.556 281.516,226.719 281.318,230.100 281.220 C 230.485 281.209,230.800 280.950,230.800 280.644 C 230.800 280.338,231.596 279.714,232.569 279.257 C 233.541 278.800,234.452 278.240,234.592 278.013 C 234.732 277.786,235.441 277.600,236.167 277.600 C 237.138 277.600,237.969 277.176,239.305 276.000 C 240.305 275.120,241.249 274.400,241.404 274.400 C 241.558 274.400,242.219 273.950,242.873 273.400 C 244.189 272.293,246.045 272.090,246.778 272.973 C 247.039 273.288,247.556 273.555,247.927 273.565 C 250.724 273.645,253.563 273.972,254.420 274.313 C 255.447 274.722,257.120 274.607,258.600 274.025 C 262.146 272.632,262.398 272.427,263.431 270.105 L 264.456 267.800 263.856 263.800 C 263.302 260.113,263.248 253.338,263.651 238.000 C 263.787 232.817,263.141 224.597,262.426 222.428 C 262.023 221.202,261.465 219.210,261.186 218.000 C 260.908 216.790,260.347 215.068,259.940 214.174 C 259.533 213.279,259.200 212.359,259.200 212.128 C 259.200 211.897,258.846 211.258,258.414 210.709 C 257.982 210.159,257.435 208.850,257.200 207.800 C 256.965 206.750,256.418 205.441,255.986 204.891 C 255.554 204.342,255.200 203.690,255.200 203.442 C 255.200 203.195,254.827 202.759,254.371 202.475 C 253.915 202.190,253.231 201.263,252.851 200.416 C 252.472 199.568,251.477 198.093,250.640 197.139 C 248.795 195.033,247.871 193.332,248.245 192.726 C 248.420 192.444,248.343 192.388,248.037 192.577 C 247.728 192.768,246.530 191.841,244.756 190.039 C 243.219 188.478,241.708 187.200,241.397 187.200 C 241.086 187.200,240.268 186.340,239.580 185.288 C 238.892 184.237,237.626 182.972,236.766 182.478 C 235.907 181.983,234.912 181.132,234.555 180.587 C 234.197 180.042,233.161 179.266,232.252 178.863 C 231.344 178.460,230.353 177.831,230.051 177.465 C 229.749 177.099,229.263 176.800,228.970 176.800 C 228.678 176.800,227.305 176.017,225.919 175.060 C 224.534 174.103,222.410 172.988,221.200 172.581 C 219.990 172.174,218.406 171.412,217.680 170.886 C 216.955 170.360,216.121 170.021,215.829 170.134 C 215.350 170.317,211.819 169.688,205.600 168.310 C 203.309 167.803,192.387 167.629,188.171 168.033 M150.974 198.940 C 151.248 200.356,151.208 201.211,150.824 202.137 C 150.536 202.831,150.254 204.030,150.198 204.800 C 150.141 205.570,149.709 207.460,149.238 209.000 C 148.734 210.649,148.216 213.930,147.979 216.982 C 147.749 219.945,147.325 222.669,146.988 223.343 C 146.665 223.992,146.400 224.801,146.400 225.141 C 146.400 227.024,145.515 224.524,145.361 222.207 C 145.263 220.727,145.002 219.178,144.782 218.766 C 144.561 218.354,144.478 217.608,144.597 217.108 C 144.716 216.609,144.875 215.660,144.949 215.000 C 145.024 214.340,145.278 212.810,145.515 211.600 C 145.751 210.390,146.154 207.960,146.410 206.200 C 147.635 197.759,150.014 193.975,150.974 198.940 M148.964 228.031 C 149.534 228.708,150.000 229.712,150.000 230.262 C 150.000 231.181,150.107 231.241,151.300 230.990 C 152.363 230.766,152.509 230.811,152.100 231.238 C 151.439 231.928,151.469 232.787,152.236 235.045 C 152.759 236.584,152.783 237.085,152.371 237.855 C 151.833 238.860,152.529 242.000,153.290 242.000 C 154.237 242.000,155.200 241.085,155.200 240.186 C 155.200 238.555,156.910 238.843,157.538 240.579 C 157.812 241.337,158.401 242.073,158.847 242.215 C 159.331 242.369,159.571 242.699,159.441 243.036 C 159.303 243.396,159.493 243.600,159.964 243.600 C 161.217 243.600,161.828 244.685,161.055 245.539 C 160.220 246.461,160.230 247.205,161.100 249.086 C 162.028 251.092,162.467 251.356,163.271 250.390 C 164.106 249.387,166.595 250.919,169.948 254.500 C 170.515 255.105,171.276 255.600,171.640 255.600 C 172.653 255.600,173.266 256.596,172.973 257.766 C 172.625 259.153,172.349 259.266,171.012 258.572 C 169.660 257.871,169.542 257.954,169.462 259.670 C 169.405 260.885,169.501 261.000,170.600 261.030 C 172.672 261.087,172.831 261.171,173.268 262.423 C 173.686 263.623,173.732 263.641,175.747 263.395 C 177.928 263.128,181.532 264.301,181.661 265.319 C 181.694 265.583,181.740 266.053,181.763 266.361 C 181.846 267.499,186.003 269.308,187.929 269.044 C 189.599 268.815,191.856 269.759,192.333 270.886 C 192.518 271.321,193.600 271.282,193.600 270.840 C 193.600 270.318,196.491 268.634,197.200 268.743 C 199.246 269.059,200.040 269.707,199.788 270.857 C 199.578 271.813,199.666 272.000,200.325 272.000 C 201.230 272.000,201.727 271.032,201.382 269.944 C 201.102 269.060,203.149 268.890,205.074 269.637 C 205.693 269.877,207.640 270.435,209.400 270.877 C 214.204 272.083,214.888 273.822,210.409 273.443 C 209.278 273.347,208.670 273.473,208.532 273.834 C 208.235 274.606,209.181 277.218,209.850 277.475 C 210.285 277.641,210.312 277.824,209.965 278.242 C 209.395 278.929,209.774 280.000,210.587 280.000 C 211.018 280.000,211.200 279.593,211.200 278.628 C 211.200 277.509,211.366 277.232,212.100 277.128 C 212.735 277.038,213.375 276.294,214.270 274.608 C 216.133 271.099,216.688 270.765,220.472 270.870 C 222.340 270.922,223.796 271.154,224.031 271.438 C 224.265 271.720,225.042 271.846,225.915 271.743 C 233.000 270.909,238.400 271.542,238.400 273.206 C 238.400 274.152,234.726 276.546,233.985 276.084 C 233.462 275.757,233.158 275.745,232.973 276.043 C 232.812 276.304,232.187 275.963,231.366 275.167 C 230.044 273.886,229.996 273.873,228.387 274.404 C 226.954 274.877,226.615 274.863,225.646 274.291 C 224.598 273.672,224.497 273.681,223.707 274.470 C 223.064 275.113,222.330 275.314,220.482 275.351 C 217.971 275.402,216.446 276.424,216.413 278.076 C 216.391 279.204,217.073 279.254,217.779 278.176 C 218.372 277.271,218.672 277.173,220.522 277.280 L 222.600 277.400 222.600 278.988 C 222.600 280.234,222.407 280.673,221.702 281.024 C 221.209 281.270,220.924 281.590,221.069 281.736 C 221.214 281.881,221.138 282.000,220.899 282.000 C 220.661 282.000,220.192 282.105,219.857 282.233 C 219.509 282.367,218.944 282.110,218.536 281.633 C 217.643 280.591,217.039 280.587,215.378 281.613 C 213.351 282.867,205.209 283.104,202.292 281.996 C 201.141 281.558,199.978 281.200,199.706 281.200 C 199.434 281.200,198.354 280.682,197.306 280.048 C 196.258 279.414,194.681 278.768,193.803 278.611 C 192.925 278.455,192.031 278.219,191.816 278.086 C 191.601 277.954,190.156 277.829,188.604 277.809 C 186.632 277.783,185.486 277.566,184.802 277.086 C 184.263 276.709,183.529 276.400,183.171 276.400 C 182.813 276.400,181.818 275.898,180.960 275.284 C 180.102 274.669,178.656 273.949,177.748 273.682 C 176.839 273.415,174.769 272.246,173.148 271.085 C 171.526 269.923,169.736 268.741,169.169 268.456 C 168.213 267.976,167.074 265.824,167.022 264.400 C 167.008 264.015,166.587 263.793,165.849 263.781 C 164.734 263.762,164.429 263.496,162.681 261.019 C 162.286 260.458,161.608 260.000,161.175 260.000 C 160.139 260.000,157.030 256.727,155.953 254.503 C 155.485 253.536,154.675 252.237,154.153 251.617 C 152.476 249.624,150.800 246.008,150.800 244.382 C 150.800 242.721,149.553 240.221,148.528 239.828 C 148.017 239.632,147.945 239.215,148.156 237.692 C 148.367 236.171,148.170 235.042,147.154 231.931 C 145.501 226.868,146.384 224.964,148.964 228.031 M265.320 236.000 C 265.320 237.210,265.395 237.705,265.487 237.100 C 265.578 236.495,265.578 235.505,265.487 234.900 C 265.395 234.295,265.320 234.790,265.320 236.000 M198.526 274.525 C 198.050 275.282,199.747 276.400,201.362 276.394 C 203.473 276.386,204.164 275.947,203.812 274.837 C 203.529 273.947,199.056 273.684,198.526 274.525 M215.116 285.261 C 214.757 285.488,214.867 285.590,215.476 285.594 C 215.958 285.597,216.445 285.450,216.559 285.267 C 216.824 284.838,215.789 284.833,215.116 285.261 " stroke="none" fill="#fbd662" fill-rule="evenodd"></path><path id="path1" d="M188.753 165.549 C 188.727 165.687,188.718 165.909,188.734 166.043 C 188.749 166.176,188.121 166.215,187.339 166.129 C 186.544 166.041,185.636 166.199,185.281 166.486 C 184.748 166.918,184.700 166.904,184.982 166.400 C 185.255 165.912,185.217 165.893,184.779 166.300 C 184.482 166.575,183.487 166.800,182.566 166.800 C 181.645 166.800,180.389 167.061,179.774 167.380 C 179.160 167.698,178.509 167.868,178.329 167.756 C 178.148 167.644,178.000 167.743,178.000 167.976 C 178.000 168.734,184.804 168.026,185.848 167.161 C 186.478 166.637,205.359 166.643,206.337 167.166 C 206.741 167.382,207.910 167.613,208.935 167.680 C 209.961 167.746,210.800 167.935,210.800 168.100 C 210.800 168.265,211.419 168.400,212.176 168.400 C 212.933 168.400,213.674 168.597,213.823 168.838 C 213.972 169.078,214.792 169.208,215.647 169.127 C 216.501 169.046,217.200 169.114,217.200 169.279 C 217.200 169.445,218.055 169.962,219.100 170.428 C 220.145 170.895,221.524 171.530,222.165 171.840 C 222.806 172.150,223.413 172.320,223.514 172.219 C 223.785 171.948,223.275 170.784,222.911 170.844 C 221.814 171.024,220.786 170.746,221.038 170.338 C 221.204 170.070,221.149 169.984,220.907 170.134 C 220.678 170.275,220.289 170.148,220.042 169.850 C 219.795 169.553,219.190 169.334,218.696 169.363 C 218.203 169.393,217.620 169.190,217.400 168.912 C 217.180 168.635,216.343 168.361,215.539 168.304 C 214.735 168.247,214.161 168.065,214.263 167.900 C 214.364 167.735,213.997 167.600,213.447 167.600 C 212.897 167.600,212.333 167.416,212.194 167.191 C 212.055 166.966,210.971 166.813,209.785 166.852 C 208.600 166.891,207.398 166.739,207.115 166.514 C 206.832 166.289,205.576 166.138,204.325 166.179 C 202.897 166.225,202.077 166.093,202.125 165.826 C 202.175 165.540,199.995 165.383,195.500 165.349 C 191.815 165.320,188.779 165.410,188.753 165.549 M139.214 167.574 C 138.279 169.320,138.707 170.253,141.550 172.666 C 143.063 173.950,144.603 175.495,144.973 176.100 L 145.645 177.200 143.223 177.200 C 141.890 177.200,140.800 177.342,140.800 177.515 C 140.800 177.688,140.218 177.874,139.507 177.928 C 138.795 177.983,138.039 178.201,137.827 178.413 C 137.614 178.626,136.947 178.800,136.344 178.800 C 135.741 178.800,135.136 178.980,135.000 179.200 C 134.864 179.420,134.425 179.600,134.025 179.600 C 133.625 179.600,133.076 179.868,132.804 180.196 C 132.532 180.523,132.162 180.700,131.982 180.589 C 131.802 180.478,131.542 180.570,131.404 180.793 C 131.266 181.017,130.837 181.200,130.452 181.200 C 130.066 181.200,129.402 181.515,128.975 181.900 C 128.549 182.285,127.705 182.855,127.100 183.168 C 126.495 183.480,126.000 183.885,126.000 184.068 C 126.000 184.250,125.799 184.400,125.553 184.400 C 124.667 184.400,118.800 190.834,118.800 191.805 C 118.800 192.132,118.656 192.400,118.480 192.400 C 118.073 192.400,117.200 194.790,117.200 195.905 C 117.200 196.371,117.046 196.848,116.857 196.965 C 116.045 197.467,116.489 200.766,117.454 201.398 C 118.476 202.068,123.837 202.188,124.231 201.549 C 124.350 201.357,124.876 201.200,125.400 201.200 C 125.924 201.200,126.464 201.020,126.600 200.800 C 126.736 200.580,127.456 200.400,128.200 200.400 C 128.944 200.400,129.664 200.220,129.800 200.000 C 129.936 199.780,130.369 199.600,130.762 199.600 C 131.155 199.600,131.802 199.240,132.200 198.800 C 132.598 198.360,133.093 198.000,133.300 198.000 C 133.507 198.000,134.232 197.605,134.910 197.121 C 135.589 196.638,136.019 196.446,135.865 196.694 C 135.253 197.685,137.921 195.906,140.192 193.809 C 141.507 192.594,142.782 191.600,143.024 191.600 C 143.267 191.600,143.720 191.110,144.032 190.512 C 144.715 189.204,145.648 188.216,146.770 187.616 C 147.600 187.172,147.931 186.000,147.227 186.000 C 147.022 186.000,146.740 185.640,146.600 185.200 C 146.460 184.760,146.004 184.400,145.586 184.400 C 145.060 184.400,144.899 184.593,145.065 185.026 C 145.213 185.411,144.839 186.144,144.097 186.926 C 143.432 187.627,142.771 188.589,142.628 189.065 C 142.331 190.053,138.889 193.023,138.496 192.630 C 138.087 192.220,137.935 190.400,138.311 190.400 C 138.497 190.400,139.045 190.031,139.530 189.580 C 140.014 189.128,140.543 188.842,140.705 188.943 C 140.867 189.043,140.941 188.096,140.868 186.838 C 140.721 184.276,141.656 182.686,142.463 184.127 C 142.676 184.507,143.006 184.720,143.197 184.602 C 143.388 184.484,143.654 184.563,143.787 184.779 C 144.133 185.339,145.600 183.759,145.600 182.826 C 145.600 181.417,146.370 179.997,147.384 179.535 L 148.383 179.079 147.494 177.440 C 147.004 176.538,145.779 174.990,144.771 174.000 C 142.140 171.417,141.841 168.730,144.455 171.165 C 144.948 171.624,145.570 172.000,145.839 172.000 C 146.107 172.000,147.322 172.811,148.539 173.803 L 150.752 175.605 152.534 174.403 C 154.407 173.139,155.547 172.907,156.280 173.640 C 156.533 173.893,158.202 174.080,160.200 174.080 C 162.198 174.080,163.867 173.893,164.120 173.640 C 164.362 173.398,164.916 173.200,165.352 173.200 C 166.195 173.200,168.232 172.600,170.200 171.772 C 170.860 171.494,172.660 170.775,174.200 170.174 C 177.533 168.873,178.059 168.496,176.453 168.561 C 175.796 168.587,175.125 168.742,174.962 168.904 C 174.800 169.067,174.342 169.200,173.945 169.200 C 173.549 169.200,172.583 169.560,171.800 170.000 C 171.017 170.440,170.032 170.800,169.611 170.800 C 169.191 170.800,168.737 170.978,168.603 171.195 C 168.460 171.427,168.657 171.494,169.079 171.358 C 169.604 171.188,169.657 171.227,169.274 171.502 C 168.985 171.709,168.310 171.795,167.774 171.693 C 167.126 171.569,166.800 171.690,166.800 172.053 C 166.800 172.498,165.367 172.591,159.100 172.552 C 154.865 172.525,151.142 172.641,150.826 172.809 C 150.159 173.164,149.140 172.645,147.470 171.100 C 146.816 170.495,146.038 170.000,145.741 170.000 C 145.443 170.000,145.200 169.820,145.200 169.600 C 145.200 169.380,144.975 169.193,144.700 169.184 C 144.425 169.175,143.577 168.635,142.815 167.984 C 141.220 166.621,139.810 166.460,139.214 167.574 M228.158 174.468 C 227.965 174.780,228.084 174.853,228.514 174.688 C 228.946 174.522,229.092 174.615,228.956 174.969 C 228.829 175.301,229.143 175.572,229.798 175.698 L 230.843 175.897 229.952 174.949 C 228.953 173.886,228.580 173.786,228.158 174.468 M235.272 179.216 C 235.366 179.499,235.884 179.992,236.422 180.310 C 237.356 180.862,237.364 180.858,236.600 180.227 C 236.160 179.863,235.859 179.443,235.930 179.293 C 236.001 179.143,235.844 178.948,235.580 178.860 C 235.316 178.772,235.177 178.932,235.272 179.216 M239.778 183.270 C 239.610 183.561,239.613 183.673,239.786 183.517 C 239.958 183.361,240.431 183.631,240.836 184.117 C 241.242 184.603,241.579 184.857,241.587 184.683 C 241.618 183.929,240.088 182.733,239.778 183.270 M242.000 185.357 C 242.000 185.659,242.360 186.001,242.800 186.116 C 243.240 186.231,243.600 186.292,243.600 186.251 C 243.600 186.211,243.240 185.870,242.800 185.493 C 242.187 184.968,242.000 184.937,242.000 185.357 M128.220 189.894 C 128.959 190.906,128.237 192.000,126.829 192.000 C 125.268 192.000,124.993 191.021,126.272 190.015 C 127.529 189.026,127.582 189.023,128.220 189.894 M147.680 190.080 C 147.416 190.344,147.221 190.929,147.246 191.380 C 147.285 192.062,147.324 192.081,147.477 191.495 C 147.578 191.107,147.827 190.893,148.030 191.019 C 148.234 191.144,148.400 190.877,148.400 190.424 C 148.400 189.467,148.328 189.432,147.680 190.080 M246.800 190.362 C 246.800 190.849,246.965 191.145,247.166 191.021 C 247.367 190.897,247.612 191.021,247.711 191.298 C 247.810 191.574,248.006 191.694,248.148 191.564 C 248.289 191.434,248.044 190.912,247.603 190.403 L 246.800 189.478 246.800 190.362 M134.084 192.876 C 133.392 193.568,132.400 193.620,132.400 192.965 C 132.400 192.618,132.817 192.400,133.480 192.400 C 134.315 192.400,134.452 192.508,134.084 192.876 M146.886 193.338 C 147.008 193.976,146.865 194.580,146.526 194.862 C 146.217 195.118,146.048 195.547,146.150 195.814 C 146.253 196.082,146.092 196.773,145.792 197.350 C 145.493 197.928,145.347 198.400,145.470 198.400 C 145.592 198.400,145.383 198.871,145.006 199.448 C 144.571 200.111,144.401 200.905,144.543 201.613 C 144.690 202.348,144.558 202.903,144.157 203.235 C 143.785 203.544,143.636 204.089,143.774 204.637 C 143.903 205.152,143.799 205.600,143.530 205.690 C 143.273 205.776,142.988 206.736,142.897 207.823 C 142.806 208.910,142.546 210.024,142.318 210.298 C 142.091 210.572,142.006 211.180,142.129 211.650 C 142.253 212.126,142.107 212.750,141.799 213.058 C 141.401 213.456,141.251 214.688,141.266 217.429 C 141.278 219.528,141.178 221.355,141.044 221.490 C 140.602 221.931,140.790 223.947,141.300 224.241 C 141.575 224.399,141.667 224.381,141.503 224.201 C 141.340 224.021,141.375 223.671,141.580 223.424 C 142.003 222.914,142.234 214.702,141.843 214.069 C 141.702 213.841,141.798 213.525,142.055 213.366 C 142.367 213.173,142.416 213.251,142.200 213.600 C 141.986 213.946,142.033 214.027,142.338 213.838 C 142.592 213.681,142.800 212.969,142.800 212.256 C 142.800 211.543,142.977 210.783,143.193 210.567 C 143.409 210.351,143.655 209.409,143.739 208.474 C 143.823 207.540,144.006 206.660,144.146 206.521 C 144.286 206.381,144.400 205.664,144.400 204.928 C 144.400 204.192,144.558 203.277,144.751 202.895 C 145.294 201.819,146.000 199.420,146.000 198.648 C 146.000 198.266,146.160 198.052,146.357 198.173 C 146.697 198.383,147.062 196.922,147.374 194.098 C 147.453 193.382,147.330 192.681,147.101 192.539 C 146.835 192.375,146.757 192.664,146.886 193.338 M250.000 194.000 C 250.235 194.440,250.608 194.800,250.828 194.800 C 251.085 194.800,251.075 194.515,250.800 194.000 C 250.565 193.560,250.192 193.200,249.972 193.200 C 249.715 193.200,249.725 193.485,250.000 194.000 M254.678 200.257 C 254.940 200.364,255.049 200.755,254.919 201.126 C 254.734 201.652,254.793 201.698,255.186 201.335 C 255.746 200.819,255.419 199.982,254.676 200.032 C 254.309 200.056,254.309 200.108,254.678 200.257 M255.609 202.100 C 255.604 202.485,255.780 202.800,256.000 202.800 C 256.220 202.800,256.400 203.160,256.400 203.600 C 256.400 204.040,256.580 204.400,256.800 204.400 C 257.434 204.400,257.251 203.488,256.400 202.400 C 255.766 201.590,255.616 201.533,255.609 202.100 M257.916 206.410 C 258.012 207.064,258.315 207.600,258.590 207.600 C 258.891 207.600,259.022 207.956,258.919 208.500 C 258.819 209.028,259.062 209.736,259.509 210.213 C 259.927 210.661,260.394 211.523,260.547 212.130 C 260.699 212.736,261.005 213.120,261.228 212.983 C 261.483 212.825,261.537 213.113,261.373 213.766 C 261.211 214.412,261.280 214.800,261.557 214.800 C 261.800 214.800,262.000 215.329,262.000 215.976 C 262.000 216.623,262.180 217.264,262.399 217.399 C 262.837 217.670,262.713 215.379,262.265 214.932 C 262.119 214.786,262.000 214.241,262.000 213.721 C 262.000 213.201,261.731 212.672,261.402 212.546 C 261.074 212.419,260.901 212.160,261.019 211.969 C 261.137 211.779,260.955 211.198,260.615 210.679 C 260.275 210.161,260.107 209.626,260.242 209.491 C 260.377 209.356,260.108 208.713,259.644 208.061 C 259.180 207.410,258.800 206.701,258.800 206.487 C 258.800 206.273,258.562 205.900,258.271 205.659 C 257.847 205.307,257.776 205.457,257.916 206.410 M262.879 219.200 C 262.929 219.860,263.112 220.400,263.285 220.400 C 263.458 220.400,263.600 220.929,263.600 221.576 C 263.600 222.223,263.742 222.840,263.915 222.948 C 264.474 223.293,264.415 221.157,263.843 220.339 C 263.538 219.904,263.380 219.200,263.491 218.774 C 263.603 218.345,263.491 218.000,263.240 218.000 C 262.983 218.000,262.827 218.519,262.879 219.200 M141.237 227.900 C 141.273 229.385,141.455 230.794,141.643 231.031 C 141.831 231.269,142.043 231.849,142.115 232.321 C 142.187 232.793,142.371 233.304,142.523 233.456 C 142.675 233.609,142.800 234.238,142.800 234.855 C 142.800 235.471,143.160 236.617,143.600 237.400 C 144.040 238.183,144.400 239.185,144.400 239.625 C 144.400 240.065,144.669 240.528,144.998 240.654 C 145.326 240.781,145.500 241.038,145.384 241.226 C 145.268 241.414,145.346 241.890,145.557 242.284 C 145.769 242.678,146.041 243.270,146.162 243.600 C 146.669 244.977,148.284 247.360,148.821 247.524 C 149.288 247.666,149.303 247.597,148.900 247.170 C 148.625 246.879,148.400 246.320,148.400 245.929 C 148.400 245.538,147.902 244.269,147.294 243.109 C 146.686 241.949,145.750 239.650,145.214 238.000 C 144.260 235.060,144.007 234.409,143.200 232.805 C 142.980 232.368,142.800 231.648,142.800 231.205 C 142.800 230.762,142.620 230.400,142.400 230.400 C 142.180 230.400,142.021 230.265,142.047 230.100 C 142.255 228.785,141.918 225.200,141.586 225.200 C 141.336 225.200,141.198 226.266,141.237 227.900 M264.462 229.330 C 264.528 231.065,264.734 232.241,264.950 232.107 C 265.175 231.968,265.184 232.100,264.973 232.438 C 264.518 233.168,264.390 234.060,264.674 234.520 C 264.798 234.721,265.055 234.641,265.244 234.343 C 265.669 233.672,265.709 231.315,265.300 231.062 C 265.135 230.960,265.023 229.957,265.051 228.832 C 265.080 227.707,264.933 226.682,264.725 226.554 C 264.498 226.414,264.394 227.518,264.462 229.330 M265.400 239.200 C 265.400 239.860,265.535 240.400,265.700 240.400 C 265.865 240.400,266.000 239.860,266.000 239.200 C 266.000 238.540,265.865 238.000,265.700 238.000 C 265.535 238.000,265.400 238.540,265.400 239.200 M264.646 242.468 C 264.094 245.231,264.375 261.060,264.998 262.254 C 265.326 262.884,265.610 263.310,265.627 263.200 C 265.645 263.090,265.737 262.584,265.831 262.076 C 265.925 261.568,265.824 260.819,265.607 260.413 C 265.056 259.383,265.058 247.051,265.610 244.504 C 265.988 242.761,265.966 242.309,265.479 241.822 C 264.964 241.307,264.863 241.386,264.646 242.468 M149.037 249.000 C 149.397 249.550,149.871 250.000,150.089 250.000 C 150.307 250.000,150.396 250.233,150.287 250.517 C 150.039 251.163,151.083 252.650,151.495 252.238 C 151.662 252.071,151.487 251.707,151.106 251.428 C 150.724 251.149,150.512 250.821,150.634 250.699 C 150.884 250.449,150.010 248.755,149.400 248.306 C 148.577 247.701,148.403 248.033,149.037 249.000 M151.829 253.153 C 151.691 253.377,151.988 253.778,152.489 254.045 C 153.348 254.503,153.366 254.487,152.813 253.765 C 152.490 253.344,152.193 252.943,152.153 252.873 C 152.113 252.804,151.967 252.930,151.829 253.153 M154.602 257.202 C 155.002 257.644,155.415 257.918,155.521 257.812 C 155.790 257.543,154.792 256.400,154.289 256.400 C 154.062 256.400,154.203 256.761,154.602 257.202 M265.200 265.400 C 265.200 265.950,265.344 266.400,265.520 266.400 C 265.696 266.400,265.840 265.950,265.840 265.400 C 265.840 264.850,265.696 264.400,265.520 264.400 C 265.344 264.400,265.200 264.850,265.200 265.400 M264.667 269.867 C 264.326 270.207,264.317 271.600,264.656 271.600 C 264.966 271.600,265.970 270.319,265.987 269.900 C 266.003 269.528,265.030 269.504,264.667 269.867 M172.150 273.232 C 172.732 273.690,173.431 273.972,173.704 273.859 C 174.001 273.736,173.839 273.544,173.300 273.380 C 172.805 273.230,172.400 272.948,172.400 272.753 C 172.400 272.559,172.106 272.400,171.746 272.400 C 171.270 272.400,171.380 272.627,172.150 273.232 M263.100 273.287 C 262.715 273.768,262.400 274.325,262.400 274.523 C 262.400 274.951,264.383 273.137,264.393 272.700 C 264.406 272.135,263.800 272.410,263.100 273.287 M243.800 274.600 C 243.140 274.887,242.633 275.274,242.674 275.461 C 242.714 275.647,242.523 275.755,242.249 275.700 C 241.975 275.645,241.395 275.915,240.960 276.300 C 240.525 276.685,239.906 277.060,239.586 277.133 C 238.852 277.300,238.000 277.995,238.000 278.425 C 238.000 278.814,239.310 278.159,241.106 276.873 C 241.818 276.363,242.400 276.045,242.400 276.166 C 242.400 276.287,243.035 276.029,243.812 275.593 C 244.589 275.157,245.478 274.800,245.789 274.800 C 246.099 274.800,246.440 274.658,246.548 274.485 C 246.868 273.966,245.088 274.041,243.800 274.600 M250.511 275.083 C 251.083 275.655,251.276 275.678,251.697 275.224 C 252.109 274.780,252.073 274.727,251.500 274.929 C 251.115 275.064,250.800 275.001,250.800 274.787 C 250.800 274.574,250.581 274.400,250.314 274.400 C 250.010 274.400,250.084 274.656,250.511 275.083 M261.423 274.762 C 261.300 274.962,260.838 275.031,260.397 274.915 C 259.957 274.800,259.302 274.950,258.942 275.248 C 258.583 275.546,257.844 275.732,257.299 275.661 C 256.665 275.578,256.407 275.687,256.579 275.965 C 256.953 276.572,258.212 276.508,258.754 275.856 C 259.002 275.557,259.620 275.391,260.127 275.488 C 260.663 275.591,261.268 275.400,261.573 275.032 C 261.862 274.684,261.997 274.400,261.873 274.400 C 261.749 274.400,261.546 274.563,261.423 274.762 M237.200 278.757 C 237.200 279.027,237.003 279.125,236.762 278.976 C 236.521 278.828,235.808 279.087,235.178 279.553 C 234.548 280.019,233.856 280.400,233.640 280.400 C 233.424 280.400,233.146 280.564,233.022 280.765 C 232.659 281.351,233.782 281.036,235.040 280.198 C 235.678 279.772,236.411 279.469,236.670 279.523 C 237.212 279.636,237.797 278.864,237.440 278.507 C 237.308 278.375,237.200 278.487,237.200 278.757 M190.597 281.530 C 190.745 281.679,190.987 281.806,191.133 281.814 C 191.280 281.822,191.794 282.047,192.276 282.315 C 192.968 282.700,193.212 282.697,193.440 282.301 C 193.598 282.025,193.586 281.929,193.412 282.086 C 193.237 282.243,192.713 282.162,192.247 281.905 C 191.281 281.373,190.192 281.125,190.597 281.530 M226.881 282.972 C 225.187 284.170,224.669 284.765,226.100 283.870 C 226.705 283.491,227.200 283.289,227.200 283.419 C 227.200 283.550,227.497 283.360,227.860 282.998 C 228.222 282.635,228.852 282.425,229.260 282.531 C 229.667 282.638,230.000 282.562,230.000 282.363 C 230.000 281.685,228.205 282.036,226.881 282.972 M197.435 283.561 C 198.046 284.219,200.000 284.524,200.000 283.961 C 200.000 283.711,199.666 283.594,199.257 283.701 C 198.848 283.808,198.173 283.715,197.757 283.494 C 197.184 283.190,197.106 283.206,197.435 283.561 M218.630 284.751 C 218.535 284.905,218.925 285.069,219.497 285.116 C 220.068 285.164,220.410 285.077,220.256 284.923 C 219.860 284.527,218.836 284.419,218.630 284.751 M208.400 285.700 C 208.400 285.865,209.840 286.000,211.600 286.000 C 213.360 286.000,214.800 285.865,214.800 285.700 C 214.800 285.535,213.360 285.400,211.600 285.400 C 209.840 285.400,208.400 285.535,208.400 285.700 " stroke="none" fill="#d6cda1" fill-rule="evenodd"></path><path id="path2" d="M188.412 166.724 C 187.209 166.792,186.032 167.008,185.797 167.203 C 185.325 167.594,181.147 168.317,178.524 168.462 C 177.602 168.512,176.914 168.660,176.994 168.790 C 177.075 168.921,176.029 169.452,174.670 169.972 C 173.312 170.492,171.467 171.256,170.571 171.669 C 169.676 172.083,168.388 172.461,167.710 172.511 C 167.033 172.560,166.561 172.735,166.663 172.900 C 166.764 173.065,166.333 173.200,165.704 173.200 C 165.075 173.200,164.362 173.398,164.120 173.640 C 163.867 173.893,162.198 174.080,160.200 174.080 C 158.202 174.080,156.533 173.893,156.280 173.640 C 155.540 172.900,154.442 173.141,152.365 174.500 L 150.377 175.800 151.623 176.818 C 153.403 178.272,153.212 180.141,151.263 180.328 C 150.409 180.410,149.649 180.206,149.161 179.765 C 147.719 178.459,145.600 180.314,145.600 182.882 C 145.600 183.338,145.288 183.940,144.908 184.218 C 144.297 184.665,144.339 184.701,145.268 184.523 C 146.086 184.367,146.381 184.509,146.588 185.161 C 146.734 185.622,147.043 186.000,147.274 186.000 C 147.504 186.000,147.599 186.360,147.484 186.800 C 147.369 187.239,147.453 187.709,147.670 187.843 C 147.887 187.977,147.953 188.533,147.816 189.077 C 147.657 189.714,147.716 189.975,147.984 189.810 C 148.222 189.663,148.400 189.915,148.400 190.400 C 148.400 190.866,148.220 191.136,148.000 191.000 C 147.780 190.864,147.581 191.123,147.557 191.576 C 147.354 195.473,146.812 198.454,146.357 198.173 C 146.160 198.052,146.000 198.266,146.000 198.648 C 146.000 199.420,145.294 201.819,144.751 202.895 C 144.558 203.277,144.400 204.192,144.400 204.928 C 144.400 205.664,144.286 206.381,144.146 206.521 C 144.006 206.660,143.823 207.540,143.739 208.474 C 143.655 209.409,143.409 210.351,143.193 210.567 C 142.977 210.783,142.800 211.543,142.800 212.256 C 142.800 212.969,142.592 213.681,142.338 213.838 C 142.033 214.027,141.986 213.946,142.200 213.600 C 142.422 213.240,142.368 213.173,142.027 213.383 C 141.754 213.552,141.681 213.840,141.865 214.024 C 142.275 214.431,142.068 223.289,141.655 223.034 C 141.263 222.792,141.255 224.940,141.647 225.209 C 141.814 225.323,141.992 226.538,142.041 227.909 C 142.091 229.279,142.282 230.400,142.466 230.400 C 142.650 230.400,142.800 230.762,142.800 231.205 C 142.800 231.648,142.980 232.368,143.200 232.805 C 144.007 234.409,144.260 235.060,145.214 238.000 C 145.750 239.650,146.686 241.949,147.294 243.109 C 147.902 244.269,148.400 245.563,148.400 245.985 C 148.400 246.407,148.599 246.876,148.843 247.026 C 149.158 247.221,149.142 247.388,148.790 247.606 C 148.438 247.824,148.529 247.987,149.104 248.170 C 149.549 248.311,150.023 248.736,150.157 249.113 C 150.291 249.491,150.504 250.070,150.631 250.400 C 150.835 250.933,150.814 250.933,150.437 250.400 C 150.203 250.070,150.009 250.004,150.006 250.254 C 150.003 250.504,150.444 250.999,150.987 251.355 C 151.648 251.788,151.890 252.221,151.719 252.666 C 151.557 253.089,151.622 253.234,151.897 253.063 C 152.144 252.911,152.557 253.305,152.854 253.978 C 153.157 254.661,153.491 254.977,153.645 254.726 C 154.046 254.079,153.336 251.996,152.363 250.960 C 151.892 250.459,150.898 248.562,150.154 246.745 C 149.410 244.928,148.621 243.261,148.401 243.041 C 148.180 242.820,148.000 242.270,148.000 241.817 C 148.000 241.364,147.565 240.176,147.033 239.178 C 146.502 238.179,145.938 236.650,145.781 235.781 C 145.624 234.911,144.961 233.120,144.308 231.800 C 143.075 229.309,142.492 220.830,143.276 216.800 C 143.426 216.030,143.758 214.410,144.015 213.200 C 144.271 211.990,144.631 210.280,144.814 209.400 C 144.997 208.520,145.049 207.394,144.929 206.897 C 144.810 206.400,144.997 205.394,145.345 204.660 C 145.693 203.926,146.021 202.758,146.074 202.063 C 146.127 201.368,146.268 200.800,146.387 200.800 C 148.092 200.800,150.021 189.539,148.994 185.579 C 148.217 182.578,148.874 181.075,150.793 181.459 C 152.921 181.884,154.177 179.704,153.129 177.404 C 152.256 175.489,153.158 175.152,159.445 175.044 C 165.626 174.937,168.308 174.341,171.760 172.306 C 172.882 171.644,173.800 171.168,173.800 171.248 C 173.800 171.465,177.221 170.413,178.600 169.772 C 179.260 169.465,180.880 169.118,182.200 168.999 C 183.520 168.881,185.140 168.612,185.800 168.402 C 186.460 168.191,190.420 167.947,194.600 167.860 C 202.376 167.697,202.821 167.742,211.748 169.599 C 213.700 170.006,215.536 170.246,215.829 170.134 C 216.121 170.021,216.955 170.360,217.680 170.886 C 218.406 171.412,219.990 172.174,221.200 172.581 C 222.410 172.988,224.534 174.103,225.919 175.060 C 227.305 176.017,228.678 176.800,228.970 176.800 C 229.263 176.800,229.749 177.099,230.051 177.465 C 230.353 177.831,231.344 178.460,232.252 178.863 C 233.161 179.266,234.197 180.042,234.555 180.587 C 234.912 181.132,235.907 181.983,236.766 182.478 C 237.626 182.972,238.892 184.237,239.580 185.288 C 240.268 186.340,241.086 187.200,241.397 187.200 C 241.708 187.200,243.219 188.478,244.756 190.039 C 246.530 191.841,247.728 192.768,248.037 192.577 C 248.343 192.388,248.420 192.444,248.245 192.726 C 247.871 193.332,248.795 195.033,250.640 197.139 C 251.477 198.093,252.472 199.568,252.851 200.416 C 253.231 201.263,253.915 202.190,254.371 202.475 C 254.827 202.759,255.200 203.195,255.200 203.442 C 255.200 203.690,255.554 204.342,255.986 204.891 C 256.418 205.441,256.965 206.750,257.200 207.800 C 257.435 208.850,257.982 210.159,258.414 210.709 C 258.846 211.258,259.200 211.897,259.200 212.128 C 259.200 212.359,259.533 213.279,259.940 214.174 C 260.347 215.068,260.908 216.790,261.186 218.000 C 261.465 219.210,262.023 221.202,262.426 222.428 C 263.141 224.597,263.787 232.817,263.651 238.000 C 263.248 253.338,263.302 260.113,263.856 263.800 L 264.456 267.800 263.431 270.105 C 261.908 273.528,257.590 275.320,253.691 274.147 C 251.649 273.533,249.930 273.611,249.690 274.331 C 249.594 274.618,249.780 274.706,250.167 274.557 C 250.515 274.424,250.800 274.508,250.800 274.745 C 250.800 274.982,251.099 275.060,251.466 274.919 C 251.913 274.748,252.036 274.817,251.842 275.132 C 251.563 275.583,252.290 275.792,253.540 275.621 C 253.837 275.580,253.962 275.739,253.817 275.973 C 253.671 276.208,253.743 276.400,253.976 276.400 C 254.209 276.400,254.400 276.236,254.400 276.035 C 254.400 275.629,255.423 275.689,255.855 276.122 C 256.312 276.578,256.870 276.437,256.564 275.942 C 256.369 275.626,256.609 275.547,257.341 275.687 C 257.923 275.798,258.400 275.715,258.400 275.502 C 258.400 275.289,258.679 275.222,259.021 275.353 C 259.420 275.506,259.542 275.429,259.361 275.137 C 259.169 274.826,259.417 274.748,260.150 274.888 C 260.738 275.001,261.317 274.934,261.437 274.740 C 261.557 274.546,261.823 274.491,262.028 274.617 C 262.232 274.744,262.400 274.665,262.400 274.442 C 262.400 274.219,262.894 273.543,263.497 272.939 C 264.138 272.298,264.538 271.513,264.460 271.051 C 264.380 270.580,264.697 269.979,265.243 269.567 C 265.973 269.017,266.064 268.760,265.690 268.308 C 265.328 267.872,265.332 267.621,265.710 267.220 C 266.097 266.809,266.095 266.662,265.700 266.517 C 265.425 266.416,265.200 265.898,265.200 265.367 C 265.200 264.835,265.425 264.397,265.700 264.394 C 266.033 264.390,266.000 264.258,265.600 264.000 C 265.200 263.742,265.167 263.610,265.500 263.606 C 265.775 263.603,266.000 263.390,266.000 263.133 C 266.000 262.877,265.883 262.784,265.739 262.927 C 264.367 264.299,263.699 245.657,264.968 241.438 C 265.543 239.530,265.423 235.424,264.769 234.586 C 264.508 234.253,264.542 232.600,264.809 232.600 C 264.848 232.600,264.923 232.112,264.977 231.515 C 265.031 230.918,264.923 230.524,264.737 230.639 C 264.552 230.753,264.400 229.836,264.400 228.600 C 264.400 227.003,264.534 226.435,264.862 226.638 C 265.178 226.834,265.213 226.747,264.973 226.362 C 264.597 225.759,264.472 225.213,264.327 223.528 C 264.276 222.938,264.091 222.544,263.917 222.651 C 263.743 222.759,263.600 222.297,263.600 221.624 C 263.600 220.951,263.398 220.400,263.151 220.400 C 262.858 220.400,262.893 220.164,263.251 219.723 C 263.624 219.263,263.640 219.143,263.300 219.347 C 262.953 219.555,262.800 219.341,262.800 218.647 C 262.800 218.097,262.620 217.536,262.400 217.400 C 262.180 217.264,262.000 216.623,262.000 215.976 C 262.000 215.329,261.800 214.800,261.557 214.800 C 261.280 214.800,261.211 214.412,261.373 213.766 C 261.537 213.113,261.483 212.825,261.228 212.983 C 261.005 213.120,260.699 212.736,260.547 212.130 C 260.394 211.523,259.927 210.661,259.509 210.213 C 259.062 209.736,258.819 209.028,258.919 208.500 C 259.028 207.924,258.893 207.600,258.545 207.600 C 258.230 207.600,258.000 207.177,258.000 206.600 C 258.000 206.050,257.640 205.240,257.200 204.800 C 256.760 204.360,256.400 203.730,256.400 203.400 C 256.400 203.070,256.220 202.800,256.000 202.800 C 255.780 202.800,255.600 202.429,255.600 201.976 C 255.600 201.449,255.431 201.257,255.132 201.442 C 254.817 201.636,254.748 201.513,254.919 201.066 C 255.060 200.700,254.990 200.400,254.764 200.400 C 254.538 200.400,254.464 200.220,254.600 200.000 C 254.736 199.780,254.567 199.600,254.224 199.600 C 253.881 199.600,253.619 199.465,253.643 199.300 C 253.738 198.645,253.089 197.221,252.783 197.410 C 252.604 197.521,252.343 197.249,252.202 196.806 C 252.061 196.363,251.778 196.000,251.573 196.000 C 251.368 196.000,251.200 195.749,251.200 195.443 C 251.200 195.136,250.958 194.793,250.663 194.680 C 250.368 194.566,249.819 193.827,249.444 193.037 C 249.069 192.247,248.501 191.600,248.181 191.600 C 247.862 191.600,247.600 191.409,247.600 191.176 C 247.600 190.943,247.420 190.864,247.200 191.000 C 246.980 191.136,246.800 190.891,246.800 190.455 C 246.800 189.551,243.428 186.000,242.568 186.000 C 242.256 186.000,242.000 185.629,242.000 185.176 C 242.000 184.723,241.828 184.459,241.618 184.589 C 241.407 184.719,240.956 184.400,240.615 183.879 C 240.274 183.358,239.561 182.700,239.031 182.417 C 238.501 182.133,237.974 181.545,237.861 181.110 C 237.747 180.675,237.463 180.437,237.230 180.581 C 236.997 180.725,236.347 180.383,235.785 179.822 C 235.223 179.260,234.653 178.800,234.517 178.800 C 234.382 178.800,233.773 178.242,233.164 177.559 C 232.554 176.877,231.859 176.440,231.618 176.589 C 231.376 176.738,231.229 176.630,231.290 176.348 C 231.399 175.839,231.167 175.745,229.557 175.650 C 228.996 175.617,228.789 175.407,228.937 175.020 C 229.093 174.613,228.967 174.514,228.514 174.688 C 228.113 174.842,227.969 174.774,228.132 174.510 C 228.418 174.047,227.328 173.410,225.976 173.250 C 225.743 173.222,225.664 173.020,225.800 172.800 C 225.936 172.580,225.857 172.400,225.624 172.400 C 225.391 172.400,225.200 172.620,225.200 172.889 C 225.200 173.158,224.907 172.960,224.549 172.448 C 224.128 171.848,223.800 171.677,223.622 171.965 C 223.424 172.285,223.015 172.251,222.173 171.844 C 221.528 171.532,220.145 170.895,219.100 170.428 C 218.055 169.962,217.200 169.445,217.200 169.279 C 217.200 169.114,216.501 169.046,215.647 169.127 C 214.792 169.208,213.972 169.078,213.823 168.838 C 213.674 168.597,212.933 168.400,212.176 168.400 C 211.419 168.400,210.800 168.265,210.799 168.100 C 210.799 167.935,210.034 167.752,209.099 167.694 C 208.165 167.636,206.950 167.409,206.400 167.189 C 205.428 166.801,192.808 166.475,188.412 166.724 M141.211 184.187 C 140.916 184.542,140.779 185.631,140.862 186.949 C 140.938 188.146,140.864 189.041,140.697 188.937 C 140.530 188.834,140.116 189.026,139.777 189.366 C 139.438 189.705,138.876 190.141,138.529 190.336 C 138.181 190.531,137.969 190.908,138.058 191.174 C 138.165 191.495,138.570 191.344,139.255 190.729 C 139.824 190.218,140.629 189.602,141.045 189.361 C 141.460 189.119,141.982 188.579,142.205 188.161 C 142.428 187.742,142.938 186.913,143.339 186.318 C 144.045 185.270,143.933 184.147,143.170 184.619 C 142.963 184.746,142.686 184.569,142.554 184.225 C 142.254 183.443,141.838 183.431,141.211 184.187 M126.272 190.015 C 124.993 191.021,125.268 192.000,126.829 192.000 C 128.237 192.000,128.959 190.906,128.220 189.894 C 127.582 189.023,127.529 189.026,126.272 190.015 M132.400 192.965 C 132.400 193.620,133.392 193.568,134.084 192.876 C 134.452 192.508,134.315 192.400,133.480 192.400 C 132.817 192.400,132.400 192.618,132.400 192.965 M154.163 255.760 C 154.206 256.389,156.800 259.072,156.800 258.486 C 156.800 258.219,156.645 258.000,156.455 258.000 C 156.266 258.000,156.189 257.594,156.283 257.098 C 156.418 256.395,156.200 256.100,155.295 255.758 C 154.451 255.440,154.142 255.440,154.163 255.760 M157.600 260.118 C 157.600 260.388,158.050 260.948,158.600 261.361 C 159.150 261.774,159.600 262.324,159.600 262.582 C 159.600 263.024,161.654 265.087,163.366 266.366 C 163.941 266.795,164.051 266.805,163.805 266.407 C 163.586 266.054,163.631 265.972,163.938 266.162 C 164.192 266.319,164.400 266.717,164.400 267.047 C 164.400 267.377,164.553 267.553,164.740 267.437 C 164.927 267.322,165.314 267.665,165.600 268.200 C 165.886 268.735,166.255 269.090,166.418 268.989 C 166.582 268.887,166.827 269.092,166.961 269.444 C 167.096 269.795,167.462 269.985,167.773 269.866 C 168.100 269.740,168.613 270.066,168.987 270.637 C 169.344 271.181,169.809 271.518,170.020 271.387 C 170.232 271.256,170.514 271.431,170.646 271.775 C 170.778 272.119,171.226 272.400,171.643 272.400 C 172.059 272.400,172.400 272.580,172.400 272.800 C 172.400 273.020,172.648 273.200,172.951 273.200 C 173.254 273.200,173.744 273.491,174.039 273.847 C 174.334 274.202,175.571 274.958,176.788 275.527 C 178.004 276.095,179.098 276.699,179.217 276.870 C 179.337 277.040,179.787 277.248,180.217 277.331 C 180.648 277.414,181.450 277.667,182.000 277.894 C 182.550 278.121,183.116 278.238,183.258 278.155 C 183.400 278.072,183.619 278.274,183.746 278.602 C 183.872 278.931,184.300 279.200,184.698 279.200 C 185.096 279.200,185.822 279.480,186.311 279.823 C 186.800 280.165,187.200 280.323,187.200 280.174 C 187.200 280.024,187.442 280.103,187.737 280.348 C 188.032 280.593,188.392 280.675,188.537 280.530 C 188.682 280.385,188.800 280.458,188.800 280.692 C 188.800 280.926,189.385 281.091,190.100 281.058 C 191.066 281.015,191.366 281.154,191.267 281.600 C 191.193 281.930,191.262 282.071,191.419 281.914 C 191.577 281.757,192.063 281.820,192.501 282.054 C 193.075 282.361,193.221 282.357,193.025 282.040 C 192.875 281.798,192.943 281.600,193.176 281.600 C 193.409 281.600,193.614 281.915,193.632 282.300 C 193.649 282.685,193.751 282.785,193.858 282.522 C 193.999 282.174,194.401 282.238,195.326 282.756 C 196.572 283.454,197.276 283.613,199.100 283.610 C 199.595 283.610,200.000 283.767,200.000 283.961 C 200.000 284.154,200.617 284.385,201.372 284.473 C 202.127 284.561,202.657 284.492,202.551 284.321 C 202.445 284.149,202.637 284.116,202.977 284.246 C 203.317 284.377,203.524 284.600,203.438 284.742 C 202.933 285.568,217.450 285.464,218.762 284.632 C 219.181 284.366,219.238 284.419,218.985 284.838 C 218.703 285.307,218.753 285.314,219.288 284.881 C 219.726 284.525,220.012 284.496,220.192 284.787 C 220.337 285.021,220.668 285.080,220.928 284.918 C 221.469 284.580,222.082 284.433,223.864 284.219 C 224.559 284.135,225.480 283.878,225.911 283.648 C 226.342 283.417,226.808 283.312,226.947 283.414 C 227.086 283.516,227.111 283.481,227.003 283.336 C 226.670 282.891,228.235 282.025,229.553 281.925 C 230.239 281.873,230.800 281.688,230.800 281.515 C 230.800 281.342,230.935 281.221,231.100 281.247 C 231.265 281.273,231.535 281.251,231.700 281.197 C 231.865 281.144,232.135 281.062,232.300 281.015 C 233.200 280.762,234.279 280.210,234.875 279.700 C 235.246 279.382,235.769 279.257,236.037 279.423 C 236.370 279.628,236.420 279.556,236.196 279.194 C 235.958 278.809,236.051 278.734,236.534 278.919 C 236.914 279.065,237.200 278.980,237.200 278.721 C 237.200 278.471,237.312 278.379,237.450 278.516 C 237.587 278.654,237.992 278.421,238.350 278.000 C 238.707 277.579,239.263 277.181,239.584 277.117 C 239.906 277.053,240.525 276.685,240.960 276.300 C 241.876 275.489,242.586 275.370,242.147 276.100 C 241.940 276.444,242.056 276.430,242.519 276.055 C 242.889 275.755,243.113 275.382,243.017 275.227 C 242.774 274.835,245.503 273.893,245.998 274.199 C 246.219 274.335,246.400 274.246,246.400 274.000 C 246.400 273.754,246.580 273.664,246.800 273.800 C 247.360 274.146,247.300 273.460,246.720 272.880 C 245.931 272.091,244.140 272.334,242.873 273.400 C 242.219 273.950,241.558 274.400,241.404 274.400 C 241.249 274.400,240.305 275.120,239.305 276.000 C 237.969 277.176,237.138 277.600,236.167 277.600 C 235.441 277.600,234.732 277.786,234.592 278.013 C 234.452 278.240,233.541 278.800,232.569 279.257 C 231.596 279.714,230.800 280.338,230.800 280.644 C 230.800 280.950,230.485 281.209,230.100 281.220 C 226.719 281.318,225.556 281.516,224.907 282.103 C 224.498 282.474,223.181 282.975,221.982 283.217 C 220.782 283.460,219.215 283.808,218.500 283.991 C 217.780 284.176,217.105 284.170,216.986 283.978 C 216.868 283.787,215.743 283.717,214.486 283.823 C 213.229 283.928,210.715 284.091,208.900 284.184 C 207.084 284.277,205.418 284.465,205.197 284.602 C 204.975 284.739,204.686 284.569,204.554 284.225 C 204.396 283.814,203.807 283.600,202.832 283.600 C 202.017 283.600,200.641 283.261,199.775 282.847 C 198.909 282.433,196.887 281.863,195.282 281.580 C 193.677 281.297,192.272 280.916,192.158 280.733 C 192.045 280.550,191.497 280.400,190.939 280.400 C 190.382 280.400,189.469 280.040,188.909 279.600 C 188.350 279.160,187.632 278.800,187.314 278.800 C 186.995 278.800,185.462 278.161,183.907 277.381 C 182.351 276.600,180.826 276.058,180.517 276.176 C 180.209 276.295,179.448 276.016,178.827 275.557 C 178.206 275.097,177.243 274.694,176.687 274.661 C 176.131 274.627,175.750 274.481,175.839 274.336 C 176.115 273.890,173.554 271.971,172.366 271.733 C 171.236 271.507,170.433 270.874,169.406 269.400 C 168.943 268.735,168.718 268.680,168.076 269.071 C 167.329 269.527,165.958 267.909,166.571 267.296 C 167.046 266.820,165.830 265.524,164.183 264.750 C 163.202 264.289,162.400 263.678,162.400 263.393 C 162.400 263.107,161.590 262.362,160.601 261.737 C 159.611 261.112,158.801 260.484,158.801 260.343 C 158.800 260.201,158.530 259.982,158.200 259.855 C 157.867 259.728,157.600 259.844,157.600 260.118 " stroke="none" fill="#dcce8d" fill-rule="evenodd"></path><path id="path3" d="M142.694 170.639 C 142.246 171.087,142.935 172.197,144.779 174.000 C 145.791 174.990,146.975 176.485,147.410 177.322 C 149.108 180.594,152.430 181.682,152.730 179.065 C 152.888 177.687,148.513 173.233,145.703 171.913 C 144.767 171.472,144.000 170.952,144.000 170.756 C 144.000 170.356,143.062 170.272,142.694 170.639 M143.575 186.100 C 143.039 186.815,142.420 187.742,142.200 188.161 C 141.980 188.579,141.452 189.119,141.027 189.361 C 139.506 190.226,137.918 192.078,138.338 192.498 C 138.874 193.034,142.331 190.214,142.638 188.991 C 142.763 188.494,143.390 187.584,144.032 186.969 C 145.144 185.904,145.573 184.800,144.875 184.800 C 144.697 184.800,144.112 185.385,143.575 186.100 " stroke="none" fill="#918455" fill-rule="evenodd"></path><path id="path4" d="M245.000 187.600 C 245.859 188.480,246.652 189.200,246.762 189.200 C 246.872 189.200,246.259 188.480,245.400 187.600 C 244.541 186.720,243.748 186.000,243.638 186.000 C 243.528 186.000,244.141 186.720,245.000 187.600 M148.628 197.814 C 147.783 199.103,147.023 201.977,146.410 206.200 C 146.154 207.960,145.751 210.390,145.515 211.600 C 145.278 212.810,145.024 214.340,144.949 215.000 C 144.875 215.660,144.716 216.609,144.597 217.108 C 144.478 217.608,144.561 218.354,144.782 218.766 C 145.002 219.178,145.263 220.727,145.361 222.207 C 145.515 224.524,146.400 227.024,146.400 225.141 C 146.400 224.801,146.665 223.992,146.988 223.343 C 147.325 222.669,147.749 219.945,147.979 216.982 C 148.216 213.930,148.734 210.649,149.238 209.000 C 149.709 207.460,150.141 205.570,150.198 204.800 C 150.254 204.030,150.536 202.831,150.824 202.137 C 152.047 199.186,150.161 195.474,148.628 197.814 M146.133 227.431 C 146.000 227.778,146.459 229.803,147.154 231.931 C 148.170 235.042,148.367 236.171,148.156 237.692 C 147.945 239.215,148.017 239.632,148.528 239.828 C 149.553 240.221,150.800 242.721,150.800 244.382 C 150.800 246.008,152.476 249.624,154.153 251.617 C 154.675 252.237,155.485 253.536,155.953 254.503 C 157.030 256.727,160.139 260.000,161.175 260.000 C 161.608 260.000,162.286 260.458,162.681 261.019 C 164.429 263.496,164.734 263.762,165.849 263.781 C 166.587 263.793,167.008 264.015,167.022 264.400 C 167.074 265.824,168.213 267.976,169.169 268.456 C 169.736 268.741,171.526 269.923,173.148 271.085 C 174.769 272.246,176.839 273.415,177.748 273.682 C 178.656 273.949,180.102 274.669,180.960 275.284 C 181.818 275.898,182.813 276.400,183.171 276.400 C 183.529 276.400,184.263 276.709,184.802 277.086 C 185.486 277.566,186.632 277.783,188.604 277.809 C 190.156 277.829,191.601 277.954,191.816 278.086 C 192.031 278.219,192.925 278.455,193.803 278.611 C 194.681 278.768,196.258 279.414,197.306 280.048 C 198.354 280.682,199.434 281.200,199.706 281.200 C 199.978 281.200,201.141 281.558,202.292 281.996 C 205.209 283.104,213.351 282.867,215.378 281.613 C 217.039 280.587,217.643 280.591,218.536 281.633 C 218.944 282.110,219.509 282.367,219.857 282.233 C 220.192 282.105,220.661 282.000,220.899 282.000 C 221.138 282.000,221.214 281.881,221.069 281.736 C 220.924 281.590,221.209 281.270,221.702 281.024 C 222.407 280.673,222.600 280.234,222.600 278.988 L 222.600 277.400 220.522 277.280 C 218.672 277.173,218.372 277.271,217.779 278.176 C 217.073 279.254,216.391 279.204,216.413 278.076 C 216.446 276.424,217.971 275.402,220.482 275.351 C 222.330 275.314,223.064 275.113,223.707 274.470 C 224.497 273.681,224.598 273.672,225.646 274.291 C 226.615 274.863,226.954 274.877,228.387 274.404 C 229.996 273.873,230.044 273.886,231.366 275.167 C 232.187 275.963,232.812 276.304,232.973 276.043 C 233.158 275.745,233.462 275.757,233.985 276.084 C 234.726 276.546,238.400 274.152,238.400 273.206 C 238.400 271.542,233.000 270.909,225.915 271.743 C 225.042 271.846,224.265 271.720,224.031 271.438 C 223.796 271.154,222.340 270.922,220.472 270.870 C 216.688 270.765,216.133 271.099,214.270 274.608 C 213.375 276.294,212.735 277.038,212.100 277.128 C 211.366 277.232,211.200 277.509,211.200 278.628 C 211.200 279.593,211.018 280.000,210.587 280.000 C 209.774 280.000,209.395 278.929,209.965 278.242 C 210.312 277.824,210.285 277.641,209.850 277.475 C 209.181 277.218,208.235 274.606,208.532 273.834 C 208.670 273.473,209.278 273.347,210.409 273.443 C 214.888 273.822,214.204 272.083,209.400 270.877 C 207.640 270.435,205.693 269.877,205.074 269.637 C 203.149 268.890,201.102 269.060,201.382 269.944 C 201.727 271.032,201.230 272.000,200.325 272.000 C 199.666 272.000,199.578 271.813,199.788 270.857 C 200.040 269.707,199.246 269.059,197.200 268.743 C 196.491 268.634,193.600 270.318,193.600 270.840 C 193.600 271.282,192.518 271.321,192.333 270.886 C 191.856 269.759,189.599 268.815,187.929 269.044 C 186.003 269.308,181.846 267.499,181.763 266.361 C 181.740 266.053,181.694 265.583,181.661 265.319 C 181.532 264.301,177.928 263.128,175.747 263.395 C 173.732 263.641,173.686 263.623,173.268 262.423 C 172.831 261.171,172.672 261.087,170.600 261.030 C 169.501 261.000,169.405 260.885,169.462 259.670 C 169.542 257.954,169.660 257.871,171.012 258.572 C 172.349 259.266,172.625 259.153,172.973 257.766 C 173.266 256.596,172.653 255.600,171.640 255.600 C 171.276 255.600,170.515 255.105,169.948 254.500 C 166.595 250.919,164.106 249.387,163.271 250.390 C 162.467 251.356,162.028 251.092,161.100 249.086 C 160.230 247.205,160.220 246.461,161.055 245.539 C 161.828 244.685,161.217 243.600,159.964 243.600 C 159.493 243.600,159.303 243.396,159.441 243.036 C 159.571 242.699,159.331 242.369,158.847 242.215 C 158.401 242.073,157.812 241.337,157.538 240.579 C 156.910 238.843,155.200 238.555,155.200 240.186 C 155.200 241.085,154.237 242.000,153.290 242.000 C 152.529 242.000,151.833 238.860,152.371 237.855 C 152.783 237.085,152.759 236.584,152.236 235.045 C 151.469 232.787,151.439 231.928,152.100 231.238 C 152.509 230.811,152.363 230.766,151.300 230.990 C 150.107 231.241,150.000 231.181,150.000 230.262 C 150.000 228.125,146.773 225.762,146.133 227.431 M265.720 236.000 C 265.720 237.210,265.795 237.705,265.887 237.100 C 265.978 236.495,265.978 235.505,265.887 234.900 C 265.795 234.295,265.720 234.790,265.720 236.000 M203.812 274.837 C 204.339 276.499,200.401 277.148,199.023 275.625 C 198.015 274.511,198.422 274.215,201.134 274.087 C 203.296 273.985,203.565 274.060,203.812 274.837 " stroke="none" fill="#f9c449" fill-rule="evenodd"></path></g></svg>